# xmcd
#
# Track frame offsets:
# 151
# 15596
# 36161
# 51650
# 69905
# 88160
#
# Disc length: 1398 seconds
#
# Revision: 0
# Processed by: cddbd v1.5PL3 Copyright (c) Steve Scherf et al.
# Submitted via: MacMP3 Pro 5.0 (http://mp3.act2.co.jp/)
#
DISCID=4b057406
DTITLE=posyring - posyring
DYEAR=1900
DGENRE=
TTITLE0=bright
TTITLE1=forleaf
TTITLE2=a
TTITLE3=b
TTITLE4=c
TTITLE5=d
EXTD=
EXTT0=
EXTT1=
EXTT2=
EXTT3=
EXTT4=
EXTT5=
PLAYORDER=
